<?xml version="1.0" encoding="UTF-8" standalone="no"?><!DOCTYPE svg PUBLIC "-//W3C//DTD SVG 1.1//EN" "http://www.w3.org/Graphics/SVG/1.1/DTD/svg11.dtd"><svg width="100%" height="100%" viewBox="0 0 768 768" version="1.1" xmlns="http://www.w3.org/2000/svg" xml:space="preserve" style="fill-rule:evenodd;clip-rule:evenodd;stroke-linejoin:round;stroke-miterlimit:2;"><g><rect x="768" y="0" width="768" height="768" style="fill:none;"/></g><g><circle cx="384" cy="384" r="384" style="fill:#222d6f;"/><g><path d="M222.828,287.066c0.02,-0.046 0.751,-0.944 2.092,0.106c17.691,13.861 132.738,109.621 137.214,113.41c5.523,4.675 13.278,9.337 22.32,9.249c9.954,-0.098 17.618,-5.417 22.759,-9.589c1.07,-0.869 6.86,-5.656 15.505,-12.811c20.574,-17.028 57.322,-47.466 85.118,-70.402c20.806,-17.168 36.597,-30.133 36.835,-30.124c0.737,0.027 0.65,0.231 0.633,0.847c-0.351,13.026 -0.127,213.14 -0.161,213.29c-0.306,1.325 -0.627,1.334 -2.256,1.355c-9.139,0.12 -239.397,0.053 -260.215,0.047c-52.845,-0.015 -52.844,0.122 -57.437,0.013c-2.533,-0.06 -2.203,-1.029 -2.209,-5.713c-0.071,-53.448 -0.225,-183.542 -0.21,-208.333c0.002,-2.727 0.005,-1.332 0.011,-1.346Zm167.681,137.112c-0.833,-1.561 -1.337,-1.667 -4.188,-1.712c-10.771,-0.169 -10.862,-0.22 -11.59,0.356c-1.542,1.22 -3.97,9.088 -11.578,25.812c-1.308,2.875 -1.16,2.923 -2.471,5.785c-4.793,10.466 -4.818,10.44 -9.311,21.028c-2.159,5.088 -3.885,6.97 -0.729,6.924c12.448,-0.18 12.584,0.181 13.305,-0.426c1.269,-1.069 3.737,-8.803 4.759,-10.903c0.851,-1.75 2.272,-1.24 8.049,-1.175c17.51,0.197 17.588,0.069 18.212,0.491c1.1,0.745 4.481,10.183 5.202,11.3c0.614,0.951 1.948,0.698 8.778,0.689c5.597,-0.007 5.592,0.042 6.078,0.016c1.913,-0.1 0.725,-2.202 0.628,-2.373c-0.066,-0.117 -0.167,-0.213 -0.228,-0.333c-0.935,-1.839 -24.297,-54.317 -24.918,-55.48Zm-0.792,32.189c1.055,2.507 -0.686,2.037 -3.398,2.014c-10.267,-0.088 -10.521,0.337 -11.074,-0.458c-0.648,-0.93 5.858,-17.277 6.057,-18.05c0.161,-0.626 0.063,-0.807 0.695,-0.894c0.957,-0.132 0.966,0.097 1.328,0.998c0.081,0.201 4.565,12.047 6.392,16.39Zm61.387,23.499c0.04,1.758 -0.387,2.441 1.364,2.585c0.828,0.068 42.478,0.013 42.632,-0.02c1.393,-0.306 1.072,-1.59 1.123,-7.799c0.021,-2.485 0.416,-4.489 -1.962,-4.607c-3.17,-0.157 -26.05,0.195 -26.843,-0.126c-0.705,-0.285 -0.805,-1.261 -0.818,-1.39c-0.076,-0.744 -0.125,-43.98 -0.177,-44.415c-0.177,-1.49 -1.311,-1.58 -1.782,-1.596c-2.76,-0.099 -10.401,-0.006 -11.305,0.005c-2.952,0.036 -2.351,1.318 -2.357,5.08c-0.006,4.183 -0.015,10.103 0.126,52.283Zm-163.565,-28.627c1.22,-0.132 1.216,-0.173 1.317,-0.142c0.157,0.048 14.305,24.726 14.871,25.18c1.355,1.088 6.644,0.387 6.953,0.274c1.335,-0.49 3.377,-5.254 5.825,-9.009c0.536,-0.823 9.858,-17.893 9.945,-17.941c0.021,-0.012 1.206,-0.035 1.217,-0.024c0.196,0.196 -0.203,31.311 0.172,32.147c0.395,0.88 1.707,0.593 10.62,0.615c2.715,0.007 3.674,0.239 3.666,-2.484c-0.02,-6.762 -0.043,-43.994 -0.128,-54.886c-0.018,-2.277 -0.407,-2.593 -2.669,-2.572c-9.6,0.09 -10.167,-0.448 -11.423,1.636c-1.951,3.235 -2.664,4.104 -5.589,9.03c-2.445,4.117 -13.494,23.16 -13.527,23.229c-1.882,3.986 -2.424,-0.352 -6.717,-7.028c-1.575,-2.45 -12.65,-21.468 -14.377,-24.112c-2.12,-3.247 -2.787,-2.533 -6.675,-2.521c-0.31,0.001 -5.212,-0.001 -5.221,-0.001c-0.348,0.003 -2.217,-0.258 -2.487,1.488c-0.034,0.219 0.055,56.469 0.06,56.605c0.005,0.137 0.041,1.207 0.774,1.53c0.308,0.136 2.318,0.125 2.52,0.123c0.831,-0.005 8.912,0.016 9.564,-0.023c0.138,-0.008 1.193,-0.072 1.51,-0.851c0.276,-0.68 0.141,-26.735 0.072,-27.795c-0.111,-1.719 -0.175,-1.702 -0.273,-2.469Zm134.697,-25.399c-0.01,4.451 -0.128,55.059 0.084,55.639c0.397,1.087 0.898,0.853 12.739,0.835c0.106,-0 2.59,0.372 2.697,-1.577c0.018,-0.335 0.17,-57.065 -0.664,-57.841c-0.596,-0.555 -0.969,-0.388 -9.866,-0.407c-1.717,-0.004 -4.462,-0.264 -4.864,0.866c-0.067,0.187 -0.009,0.182 -0.125,2.485Z" style="fill:#acb7c5;"/><path d="M222.924,412.539l-0.108,0l0,-141.849c0.317,0.64 0.843,1.299 1.624,1.944c35.656,29.415 144.285,119.448 146.985,121.477c7.037,5.288 17.156,6.439 26.9,-1.738c25.708,-21.575 142.959,-117.756 145.414,-119.886c0.816,-0.708 1.312,-1.424 1.577,-2.105l0,16.998c-0,-0.332 -0.082,-0.456 -0.645,-0.476c-0.238,-0.009 -16.029,12.956 -36.835,30.124c-27.796,22.936 -64.544,53.373 -85.118,70.402c-8.645,7.155 -14.435,11.943 -15.505,12.811c-5.14,4.172 -12.805,9.491 -22.759,9.589c-9.042,0.089 -16.797,-4.574 -22.32,-9.249c-4.476,-3.789 -119.523,-99.549 -137.214,-113.41c-1.341,-1.051 -2.071,-0.152 -2.092,-0.106c-0.006,0.014 -0.01,-1.382 -0.011,1.346c-0.009,15.365 0.047,71.18 0.107,124.127Zm322.392,-125.158l0,125.158l-0.208,0c-0.015,-55.442 0.006,-117.712 0.196,-124.787c0.004,-0.146 0.012,-0.268 0.012,-0.371Z" style="fill:#ff6c00;"/><path d="M543.74,272.488c-2.455,2.13 -119.706,98.311 -145.414,119.886c-9.744,8.177 -19.863,7.025 -26.9,1.738c-2.701,-2.029 -111.33,-92.062 -146.985,-121.477c-2.683,-2.214 -2.361,-4.6 -0.85,-5.808c0.95,-0.759 1.74,-1.305 5.264,-1.303c96.575,0.05 309.358,-0.017 311.542,-0.024c3.19,-0.01 3.424,0.562 4.237,1.343c1.041,1 1.734,3.365 -0.895,5.645Z" style="fill:#3a478a;"/></g></g></svg>