<?xml version="1.0" encoding="UTF-8" standalone="no"?><!DOCTYPE svg PUBLIC "-//W3C//DTD SVG 1.1//EN" "http://www.w3.org/Graphics/SVG/1.1/DTD/svg11.dtd"><svg width="100%" height="100%" viewBox="0 0 768 768" version="1.1" xmlns="http://www.w3.org/2000/svg" xml:space="preserve" style="fill-rule:evenodd;clip-rule:evenodd;stroke-linejoin:round;stroke-miterlimit:2;"><g><g><path d="M73.192,197.071c0.039,-0.089 1.448,-1.821 4.034,0.205c34.116,26.73 255.976,211.396 264.608,218.703c10.651,9.015 25.605,18.007 43.042,17.835c19.195,-0.189 33.976,-10.446 43.888,-18.491c2.064,-1.675 13.229,-10.907 29.9,-24.705c39.676,-32.838 110.541,-91.534 164.144,-135.764c40.123,-33.107 70.575,-58.109 71.034,-58.092c1.421,0.052 1.253,0.445 1.221,1.634c-0.677,25.12 -0.244,411.025 -0.311,411.313c-0.591,2.555 -1.209,2.573 -4.35,2.614c-17.625,0.231 -461.66,0.102 -501.804,0.09c-101.907,-0.03 -101.905,0.236 -110.762,0.025c-4.885,-0.116 -4.248,-1.984 -4.26,-11.017c-0.137,-103.07 -0.433,-353.948 -0.405,-401.754c0.003,-5.259 0.01,-2.569 0.022,-2.595Zm323.361,264.41c-1.607,-3.01 -2.578,-3.215 -8.075,-3.301c-20.771,-0.326 -20.946,-0.424 -22.35,0.686c-2.973,2.353 -7.656,17.525 -22.328,49.777c-2.522,5.544 -2.236,5.636 -4.764,11.157c-9.243,20.183 -9.292,20.133 -17.955,40.551c-4.163,9.813 -7.491,13.441 -1.405,13.353c24.004,-0.346 24.268,0.349 25.658,-0.822c2.447,-2.062 7.207,-16.977 9.177,-21.026c1.641,-3.374 4.382,-2.391 15.522,-2.266c33.766,0.379 33.917,0.133 35.12,0.947c2.121,1.437 8.641,19.637 10.032,21.792c1.185,1.834 3.756,1.345 16.928,1.329c10.793,-0.014 10.784,0.08 11.721,0.031c3.689,-0.194 1.398,-4.246 1.211,-4.575c-0.128,-0.226 -0.322,-0.411 -0.44,-0.642c-1.803,-3.546 -46.855,-104.746 -48.052,-106.989Zm-1.528,62.074c2.034,4.835 -1.322,3.928 -6.553,3.883c-19.799,-0.17 -20.288,0.65 -21.356,-0.884c-1.249,-1.794 11.296,-33.317 11.68,-34.808c0.311,-1.208 0.122,-1.556 1.341,-1.724c1.845,-0.254 1.863,0.187 2.562,1.925c0.155,0.387 8.803,23.231 12.326,31.607Zm118.381,45.316c0.077,3.39 -0.746,4.707 2.63,4.986c1.596,0.132 81.916,0.026 82.212,-0.039c2.687,-0.589 2.067,-3.066 2.166,-15.039c0.04,-4.793 0.802,-8.657 -3.784,-8.884c-6.112,-0.302 -50.236,0.376 -51.765,-0.243c-1.359,-0.549 -1.552,-2.433 -1.578,-2.68c-0.147,-1.435 -0.241,-84.811 -0.341,-85.651c-0.342,-2.873 -2.529,-3.046 -3.437,-3.079c-5.323,-0.19 -20.057,-0.012 -21.801,0.009c-5.692,0.069 -4.534,2.541 -4.545,9.797c-0.012,8.066 -0.029,19.483 0.242,100.823Zm-315.424,-55.205c2.354,-0.254 2.345,-0.334 2.54,-0.275c0.303,0.093 27.586,47.681 28.677,48.558c2.612,2.099 12.813,0.747 13.409,0.528c2.575,-0.945 6.513,-10.132 11.232,-17.374c1.034,-1.587 19.01,-34.505 19.177,-34.598c0.041,-0.023 2.325,-0.067 2.346,-0.046c0.378,0.378 -0.392,60.381 0.332,61.993c0.763,1.697 3.292,1.144 20.48,1.186c5.235,0.013 7.085,0.461 7.07,-4.79c-0.038,-13.04 -0.082,-84.84 -0.247,-105.844c-0.034,-4.392 -0.785,-5 -5.146,-4.96c-18.513,0.173 -19.606,-0.864 -22.029,3.154c-3.763,6.239 -5.137,7.915 -10.778,17.414c-4.715,7.94 -26.023,44.663 -26.086,44.796c-3.629,7.686 -4.674,-0.679 -12.953,-13.552c-3.038,-4.724 -24.395,-41.399 -27.725,-46.497c-4.088,-6.261 -5.375,-4.885 -12.873,-4.862c-0.597,0.002 -10.051,-0.002 -10.068,-0.002c-0.672,0.005 -4.276,-0.497 -4.795,2.87c-0.065,0.423 0.106,108.897 0.115,109.159c0.009,0.265 0.079,2.327 1.493,2.951c0.594,0.262 4.47,0.24 4.859,0.238c1.603,-0.009 17.186,0.031 18.444,-0.045c0.267,-0.016 2.3,-0.138 2.911,-1.641c0.533,-1.311 0.271,-51.557 0.14,-53.601c-0.213,-3.316 -0.337,-3.282 -0.527,-4.761Zm259.753,-48.981c-0.02,8.584 -0.246,106.177 0.162,107.295c0.766,2.096 1.732,1.646 24.566,1.61c0.204,-0 4.995,0.718 5.201,-3.041c0.035,-0.646 0.327,-110.045 -1.281,-111.541c-1.149,-1.07 -1.869,-0.749 -19.025,-0.785c-3.31,-0.007 -8.604,-0.509 -9.381,1.67c-0.129,0.362 -0.018,0.35 -0.242,4.792Z" style="fill:#acb7c5;"/><path d="M73.377,439.036l-0.208,-0l0,-273.544c0.61,1.235 1.626,2.506 3.132,3.749c68.759,56.724 278.242,230.346 283.45,234.259c13.571,10.197 33.084,12.418 51.874,-3.351c49.576,-41.605 275.685,-227.083 280.42,-231.191c1.573,-1.365 2.53,-2.746 3.04,-4.058l0,32.78c-0,-0.64 -0.158,-0.879 -1.243,-0.918c-0.459,-0.017 -30.911,24.985 -71.034,58.092c-53.603,44.23 -124.468,102.927 -164.144,135.764c-16.671,13.798 -27.836,23.03 -29.9,24.705c-9.912,8.045 -24.693,18.302 -43.888,18.491c-17.437,0.172 -32.392,-8.82 -43.042,-17.835c-8.632,-7.307 -230.491,-191.973 -264.608,-218.703c-2.586,-2.026 -3.994,-0.294 -4.034,-0.205c-0.012,0.026 -0.018,-2.665 -0.022,2.595c-0.017,29.63 0.09,137.265 0.206,239.37Zm621.709,-241.357l0,241.357l-0.401,0c-0.029,-106.916 0.011,-226.998 0.379,-240.642c0.008,-0.281 0.023,-0.517 0.023,-0.715Z" style="fill:#ff6c00;"/><path d="M692.046,168.957c-4.735,4.108 -230.844,189.586 -280.42,231.191c-18.79,15.769 -38.303,13.548 -51.874,3.351c-5.208,-3.913 -214.691,-177.536 -283.45,-234.259c-5.175,-4.269 -4.554,-8.871 -1.639,-11.2c1.832,-1.464 3.356,-2.516 10.151,-2.513c186.238,0.095 596.573,-0.032 600.786,-0.045c6.152,-0.02 6.604,1.084 8.171,2.59c2.007,1.928 3.343,6.489 -1.725,10.885Z" style="fill:#3a478a;"/></g><rect x="0" y="0" width="768" height="768" style="fill:none;"/></g><g><circle cx="-384" cy="384" r="384" style="fill:#222d6f;"/></g></svg>