<?xml version="1.0" encoding="UTF-8" standalone="no"?><!DOCTYPE svg PUBLIC "-//W3C//DTD SVG 1.1//EN" "http://www.w3.org/Graphics/SVG/1.1/DTD/svg11.dtd"><svg width="100%" height="100%" viewBox="0 0 768 768" version="1.1" xmlns="http://www.w3.org/2000/svg" xml:space="preserve" style="fill-rule:evenodd;clip-rule:evenodd;stroke-linejoin:round;stroke-miterlimit:2;"><g id="Logo-without-background"><g id="Envelope"><path id="Body" d="M0.932,153.611c0.049,-0.11 1.785,-2.245 4.972,0.252c42.048,32.944 315.488,260.544 326.127,269.549c13.127,11.111 31.558,22.193 53.049,21.982c23.658,-0.233 41.875,-12.875 54.092,-22.79c2.544,-2.064 16.304,-13.443 36.852,-30.449c48.901,-40.472 136.241,-112.816 202.306,-167.328c49.452,-40.804 86.983,-71.618 87.549,-71.598c1.751,0.064 1.544,0.549 1.505,2.014c-0.835,30.96 -0.301,506.585 -0.383,506.94c-0.728,3.148 -1.49,3.171 -5.362,3.221c-21.722,0.284 -568.992,0.126 -618.47,0.111c-125.6,-0.036 -125.597,0.291 -136.514,0.031c-6.02,-0.143 -5.235,-2.445 -5.25,-13.578c-0.169,-127.032 -0.534,-436.238 -0.5,-495.159c0.004,-6.482 0.012,-3.166 0.027,-3.198Zm398.539,325.883c-1.98,-3.71 -3.177,-3.963 -9.953,-4.069c-25.6,-0.402 -25.816,-0.523 -27.546,0.846c-3.664,2.9 -9.436,21.6 -27.519,61.35c-3.108,6.833 -2.756,6.946 -5.872,13.751c-11.391,24.875 -11.452,24.813 -22.129,49.978c-5.131,12.094 -9.233,16.566 -1.732,16.457c29.585,-0.427 29.91,0.43 31.623,-1.013c3.016,-2.541 8.883,-20.924 11.311,-25.915c2.023,-4.159 5.401,-2.947 19.131,-2.792c41.616,0.467 41.803,0.163 43.285,1.168c2.614,1.77 10.649,24.202 12.365,26.858c1.46,2.26 4.629,1.658 20.863,1.638c13.302,-0.017 13.292,0.099 14.446,0.038c4.547,-0.239 1.722,-5.233 1.493,-5.639c-0.157,-0.278 -0.397,-0.506 -0.542,-0.791c-2.222,-4.37 -57.748,-129.098 -59.224,-131.863Zm-1.884,76.506c2.507,5.959 -1.629,4.842 -8.076,4.786c-24.402,-0.209 -25.005,0.801 -26.321,-1.089c-1.539,-2.211 13.923,-41.063 14.395,-42.901c0.383,-1.489 0.151,-1.917 1.652,-2.124c2.274,-0.313 2.296,0.231 3.157,2.373c0.192,0.477 10.849,28.632 15.192,38.955Zm145.903,55.852c0.095,4.179 -0.919,5.801 3.241,6.145c1.967,0.162 100.961,0.032 101.326,-0.049c3.312,-0.726 2.548,-3.778 2.67,-18.536c0.049,-5.907 0.988,-10.67 -4.664,-10.949c-7.534,-0.372 -61.915,0.463 -63.8,-0.299c-1.675,-0.677 -1.913,-2.998 -1.945,-3.303c-0.182,-1.769 -0.297,-104.529 -0.421,-105.564c-0.422,-3.541 -3.117,-3.754 -4.235,-3.794c-6.561,-0.234 -24.72,-0.015 -26.87,0.011c-7.015,0.085 -5.588,3.132 -5.601,12.075c-0.015,9.941 -0.036,24.013 0.299,124.264Zm-388.757,-68.039c2.901,-0.314 2.89,-0.412 3.131,-0.339c0.374,0.114 33.999,58.767 35.344,59.847c3.219,2.587 15.792,0.921 16.527,0.651c3.173,-1.165 8.027,-12.487 13.844,-21.413c1.275,-1.956 23.429,-42.527 23.636,-42.642c0.05,-0.028 2.866,-0.082 2.891,-0.056c0.466,0.466 -0.483,74.419 0.41,76.406c0.94,2.091 4.057,1.41 25.242,1.462c6.452,0.016 8.733,0.568 8.714,-5.904c-0.047,-16.071 -0.102,-104.564 -0.305,-130.452c-0.042,-5.413 -0.968,-6.163 -6.342,-6.113c-22.817,0.213 -24.164,-1.065 -27.151,3.888c-4.638,7.689 -6.332,9.755 -13.283,21.462c-5.811,9.786 -32.073,55.046 -32.15,55.211c-4.473,9.473 -5.761,-0.837 -15.964,-16.703c-3.744,-5.822 -30.067,-51.024 -34.17,-57.308c-5.039,-7.716 -6.625,-6.021 -15.865,-5.992c-0.736,0.002 -12.388,-0.003 -12.408,-0.002c-0.828,0.006 -5.27,-0.613 -5.91,3.537c-0.08,0.522 0.13,134.215 0.141,134.538c0.011,0.326 0.098,2.868 1.84,3.638c0.732,0.323 5.509,0.296 5.988,0.293c1.976,-0.011 21.181,0.038 22.732,-0.055c0.329,-0.02 2.835,-0.17 3.588,-2.022c0.656,-1.615 0.334,-63.543 0.172,-66.063c-0.263,-4.087 -0.415,-4.045 -0.65,-5.868Zm320.143,-60.368c-0.025,10.579 -0.304,130.863 0.199,132.24c0.944,2.584 2.134,2.028 30.277,1.985c0.251,-0 6.156,0.885 6.41,-3.747c0.044,-0.796 0.403,-135.629 -1.578,-137.474c-1.417,-1.318 -2.304,-0.923 -23.448,-0.967c-4.08,-0.009 -10.605,-0.627 -11.562,2.058c-0.159,0.446 -0.022,0.432 -0.298,5.906Z" style="fill:#acb7c5;"/><path id="V" d="M1.16,451.831l-0.257,-0l0,-337.141c0.752,1.522 2.004,3.089 3.86,4.62c84.745,69.912 342.931,283.9 349.35,288.723c16.726,12.567 40.776,15.305 63.935,-4.131c61.102,-51.278 339.78,-279.878 345.616,-284.941c1.939,-1.682 3.118,-3.384 3.747,-5.002l0,40.401c-0,-0.789 -0.195,-1.083 -1.533,-1.132c-0.566,-0.021 -38.097,30.793 -87.549,71.598c-66.065,54.513 -153.406,126.856 -202.306,167.328c-20.547,17.006 -34.308,28.385 -36.852,30.449c-12.217,9.915 -30.434,22.557 -54.092,22.79c-21.491,0.211 -39.923,-10.87 -53.049,-21.982c-10.639,-9.005 -284.079,-236.605 -326.127,-269.549c-3.187,-2.497 -4.923,-0.362 -4.972,-0.252c-0.014,0.032 -0.023,-3.284 -0.027,3.198c-0.021,36.518 0.111,169.178 0.254,295.022Zm766.251,-297.47l0,297.47l-0.495,0c-0.036,-131.773 0.013,-279.773 0.467,-296.589c0.009,-0.346 0.028,-0.638 0.028,-0.882Z" style="fill:#ff6c00;"/><path id="Flap" d="M763.664,118.961c-5.836,5.063 -284.513,233.663 -345.616,284.941c-23.159,19.435 -47.209,16.698 -63.935,4.131c-6.419,-4.823 -264.605,-218.811 -349.35,-288.723c-6.378,-5.261 -5.613,-10.933 -2.02,-13.804c2.258,-1.804 4.136,-3.101 12.512,-3.097c229.536,0.118 735.271,-0.039 740.464,-0.056c7.583,-0.024 8.139,1.336 10.071,3.192c2.473,2.377 4.121,7.997 -2.127,13.416Z" style="fill:#3a478a;"/></g><rect x="0" y="0" width="768" height="768" style="fill:none;"/></g><g id="Logo-with-circle-background"><circle id="Circle" cx="-384" cy="384" r="384" style="fill:#222d6f;"/></g></svg>